<svg width="1584" height="396" viewBox="0 0 1584 396" fill="none" xmlns="http://www.w3.org/2000/svg">
<rect width="1584" height="396" fill="#F5F5F5"/>
<g id="Awesome banner" clip-path="url(#clip0_0_1)">
<rect width="1584" height="396" fill="url(#paint0_linear_0_1)"/>
<ellipse id="Ellipse 2" cx="323" cy="64" rx="285" ry="288" fill="url(#paint1_linear_0_1)" fill-opacity="0.1"/>
<g id="copyright">
<path d="M75.95 334.52L72.30 334.52L72.30 311.16L77.20 311.16L83.70 330.04Q83.60 329.02 83.50 327.62Q83.41 326.23 83.33 324.79Q83.25 323.35 83.25 322.23L83.25 311.16L86.90 311.16L86.90 334.52L82 334.52L75.57 315.64Q75.63 316.57 75.73 317.88Q75.82 319.19 75.89 320.57Q75.95 321.94 75.95 323.10L75.95 334.52M98.80 334.84Q96.46 334.84 94.67 333.96Q92.88 333.08 91.89 331.53Q90.90 329.98 90.90 327.93Q90.90 325.78 92.13 324.18Q93.36 322.58 95.34 322.17L95.34 322.10Q93.65 321.75 92.61 320.38Q91.57 319 91.57 317.11Q91.57 315.26 92.48 313.85Q93.39 312.44 95.02 311.64Q96.66 310.84 98.80 310.84Q100.94 310.84 102.59 311.64Q104.24 312.44 105.15 313.85Q106.06 315.26 106.06 317.11Q106.06 319 105.01 320.38Q103.95 321.75 102.26 322.10L102.26 322.17Q104.24 322.58 105.47 324.18Q106.70 325.78 106.70 327.93Q106.70 329.98 105.71 331.53Q104.72 333.08 102.93 333.96Q101.14 334.84 98.80 334.84M98.80 320.73Q100.30 320.73 101.23 319.82Q102.16 318.90 102.16 317.46Q102.16 315.99 101.23 315.08Q100.30 314.17 98.80 314.17Q97.30 314.17 96.37 315.08Q95.44 315.99 95.44 317.46Q95.44 318.90 96.37 319.82Q97.30 320.73 98.80 320.73M98.80 331.45Q100.56 331.45 101.68 330.42Q102.80 329.40 102.80 327.74Q102.80 326.04 101.68 325Q100.56 323.96 98.80 323.96Q97.04 323.96 95.92 325Q94.80 326.04 94.80 327.74Q94.80 329.40 95.92 330.42Q97.04 331.45 98.80 331.45M114.35 334.52L110.70 334.52L110.70 311.16L115.60 311.16L122.10 330.04Q122 329.02 121.90 327.62Q121.81 326.23 121.73 324.79Q121.65 323.35 121.65 322.23L121.65 311.16L125.30 311.16L125.30 334.52L120.40 334.52L113.97 315.64Q114.03 316.57 114.13 317.88Q114.22 319.19 114.29 320.57Q114.35 321.94 114.35 323.10" fill="white" fill-opacity="0.9"/>
<path d="M161.48 325.24L151.24 325.24L151.24 322.68L161.48 322.68" fill="white" fill-opacity="0.9"/>
<path d="M195.02 334.84Q191.82 334.84 189.96 333.05Q188.11 331.26 188.11 328.12L188.11 317.56Q188.11 314.42 189.96 312.63Q191.82 310.84 195.02 310.84Q198.15 310.84 200.01 312.65Q201.87 314.46 201.87 317.56L198.99 317.56Q198.99 315.58 197.95 314.50Q196.91 313.43 195.02 313.43Q193.13 313.43 192.06 314.50Q190.99 315.58 190.99 317.56L190.99 328.12Q190.99 330.10 192.06 331.18Q193.13 332.25 195.02 332.25Q196.91 332.25 197.95 331.18Q198.99 330.10 198.99 328.12L201.87 328.12Q201.87 331.22 200.01 333.03Q198.15 334.84 195.02 334.84" fill="white" fill-opacity="0.9"/>
<path d="M213.96 334.84Q210.83 334.84 209 333.02Q207.18 331.19 207.18 327.80L207.18 317.88Q207.18 314.49 209 312.66Q210.83 310.84 213.96 310.84Q217.10 310.84 218.92 312.66Q220.75 314.49 220.75 317.85L220.75 327.80Q220.75 331.19 218.92 333.02Q217.10 334.84 213.96 334.84M213.96 332.25Q215.85 332.25 216.86 331.18Q217.87 330.10 217.87 328.12L217.87 317.56Q217.87 315.58 216.86 314.50Q215.85 313.43 213.96 313.43Q212.11 313.43 211.08 314.50Q210.06 315.58 210.06 317.56L210.06 328.12Q210.06 330.10 211.08 331.18Q212.11 332.25 213.96 332.25" fill="white" fill-opacity="0.9"/>
<path d="M228.65 334.52L225.87 334.52L225.87 311.16L230.12 311.16L233.10 321.27L236.20 311.16L240.46 311.16L240.46 334.52L237.67 334.52L237.67 323.48Q237.67 321.91 237.72 319.88Q237.77 317.85 237.87 315.77Q237.96 313.69 238.09 312.02L234.31 324.09L231.82 324.09L228.20 312.31Q228.46 314.68 228.55 317.50Q228.65 320.31 228.65 323.48" fill="white" fill-opacity="0.9"/>
<path d="M247.85 334.52L245.07 334.52L245.07 311.16L249.32 311.16L252.30 321.27L255.40 311.16L259.66 311.16L259.66 334.52L256.87 334.52L256.87 323.48Q256.87 321.91 256.92 319.88Q256.97 317.85 257.07 315.77Q257.16 313.69 257.29 312.02L253.51 324.09L251.02 324.09L247.40 312.31Q247.66 314.68 247.75 317.50Q247.85 320.31 247.85 323.48" fill="white" fill-opacity="0.9"/>
<path d="M271.56 334.84Q268.30 334.84 266.57 333.03Q264.84 331.22 264.84 328.12L264.84 311.16L267.72 311.16L267.72 328.12Q267.72 330.04 268.67 331.16Q269.61 332.28 271.56 332.28Q273.48 332.28 274.44 331.16Q275.40 330.04 275.40 328.12L275.40 311.16L278.28 311.16L278.28 328.12Q278.28 331.26 276.57 333.05Q274.86 334.84 271.56 334.84" fill="white" fill-opacity="0.9"/>
<path d="M286.83 334.52L284.04 334.52L284.04 311.16L287.88 311.16L295.02 331.16Q294.95 330.36 294.87 329.19Q294.79 328.02 294.75 326.73Q294.70 325.43 294.70 324.28L294.70 311.16L297.48 311.16L297.48 334.52L293.64 334.52L286.54 314.52Q286.60 315.29 286.67 316.46Q286.73 317.62 286.78 318.92Q286.83 320.22 286.83 321.40" fill="white" fill-opacity="0.9"/>
<path d="M316.20 334.52L303.72 334.52L303.72 331.90L308.49 331.90L308.49 313.78L303.72 313.78L303.72 311.16L316.20 311.16L316.20 313.78L311.43 313.78L311.43 331.90L316.20 331.90" fill="white" fill-opacity="0.9"/>
<path d="M330.60 334.52L327.72 334.52L327.72 313.78L321.32 313.78L321.32 311.16L337 311.16L337 313.78L330.60 313.78" fill="white" fill-opacity="0.9"/>
<path d="M349.80 334.52L346.92 334.52L346.92 325.78L339.88 311.16L342.95 311.16L347.50 320.76Q347.88 321.56 348.11 322.12Q348.33 322.68 348.39 322.94Q348.46 322.68 348.70 322.12Q348.94 321.56 349.32 320.76L353.87 311.16L356.84 311.16L349.80 325.78" fill="white" fill-opacity="0.9"/>
<path d="M382.83 334.52L380.04 334.52L380.04 311.16L383.88 311.16L391.02 331.16Q390.95 330.36 390.87 329.19Q390.79 328.02 390.75 326.73Q390.70 325.43 390.70 324.28L390.70 311.16L393.48 311.16L393.48 334.52L389.64 334.52L382.54 314.52Q382.60 315.29 382.67 316.46Q382.73 317.62 382.78 318.92Q382.83 320.22 382.83 321.40" fill="white" fill-opacity="0.9"/>
<path d="M405.96 334.84Q402.83 334.84 401 333.02Q399.18 331.19 399.18 327.80L399.18 317.88Q399.18 314.49 401 312.66Q402.83 310.84 405.96 310.84Q409.10 310.84 410.92 312.66Q412.75 314.49 412.75 317.85L412.75 327.80Q412.75 331.19 410.92 333.02Q409.10 334.84 405.96 334.84M405.96 332.25Q407.85 332.25 408.86 331.18Q409.87 330.10 409.87 328.12L409.87 317.56Q409.87 315.58 408.86 314.50Q407.85 313.43 405.96 313.43Q404.11 313.43 403.08 314.50Q402.06 315.58 402.06 317.56L402.06 328.12Q402.06 330.10 403.08 331.18Q404.11 332.25 405.96 332.25" fill="white" fill-opacity="0.9"/>
<path d="M424.55 334.52L418.51 334.52L418.51 311.16L424.55 311.16Q426.83 311.16 428.47 312.02Q430.12 312.89 431.03 314.46Q431.95 316.02 431.95 318.17L431.95 327.48Q431.95 329.62 431.03 331.21Q430.12 332.79 428.47 333.66Q426.83 334.52 424.55 334.52M421.39 313.72L421.39 331.96L424.55 331.96Q426.67 331.96 427.87 330.78Q429.07 329.59 429.07 327.48L429.07 318.17Q429.07 316.09 427.87 314.90Q426.67 313.72 424.55 313.72" fill="white" fill-opacity="0.9"/>
<path d="M451.40 334.52L437.96 334.52L437.96 311.16L451.40 311.16L451.40 313.78L440.81 313.78L440.81 321.02L450.28 321.02L450.28 323.58L440.81 323.58L440.81 331.90L451.40 331.90" fill="white" fill-opacity="0.9"/>
<path d="M463.69 334.84Q460.30 334.84 458.28 333.05Q456.27 331.26 456.27 328.12L459.15 328.12Q459.15 330.07 460.39 331.18Q461.64 332.28 463.69 332.28Q465.67 332.28 466.86 331.13Q468.04 329.98 468.04 328.12Q468.04 326.71 467.29 325.67Q466.54 324.63 465.13 324.25L461.58 323.26Q459.37 322.62 458.11 320.97Q456.84 319.32 456.84 317.08Q456.84 315.22 457.67 313.82Q458.51 312.41 460.01 311.62Q461.51 310.84 463.47 310.84Q465.45 310.84 466.97 311.62Q468.49 312.41 469.35 313.80Q470.22 315.19 470.22 317.02L467.34 317.02Q467.34 315.42 466.25 314.41Q465.16 313.40 463.47 313.40Q461.77 313.40 460.71 314.41Q459.66 315.42 459.66 317.02Q459.66 318.30 460.35 319.21Q461.03 320.12 462.28 320.47L465.93 321.50Q468.27 322.14 469.56 323.91Q470.86 325.69 470.86 328.12Q470.86 331.19 468.91 333.02Q466.95 334.84 463.69 334.84" fill="white" fill-opacity="0.9"/>
</g>
<path d="M78.28 197.64L76.12 197.64L76.12 182.09L71.32 182.09L71.32 180.12L83.08 180.12L83.08 182.09L78.28 182.09" fill="white" fill-opacity="0.7"/>
<path d="M88.77 197.64L86.61 197.64L86.61 180.12L88.77 180.12L88.77 186.96L88.79 186.96Q88.96 185.64 89.87 184.92Q90.78 184.20 92.30 184.20Q94.29 184.20 95.46 185.42Q96.64 186.65 96.64 188.76L96.64 197.64L94.48 197.64L94.48 189.12Q94.48 187.63 93.72 186.83Q92.97 186.02 91.67 186.02Q90.33 186.02 89.55 186.86Q88.77 187.70 88.77 189.24" fill="white" fill-opacity="0.7"/>
<path d="M112.12 197.64L100.84 197.64L100.84 195.67L105.52 195.67L105.52 186.41L101.32 186.41L101.32 184.44L107.68 184.44L107.68 195.67L112.12 195.67L112.12 197.64M106.36 182.06Q105.57 182.06 105.11 181.66Q104.66 181.25 104.66 180.55Q104.66 179.83 105.11 179.41Q105.57 178.99 106.36 178.99Q107.15 178.99 107.61 179.41Q108.06 179.83 108.06 180.55Q108.06 181.25 107.61 181.66Q107.15 182.06 106.36 182.06" fill="white" fill-opacity="0.7"/>
<path d="M120.93 197.83L119.87 197.83Q117.66 197.83 116.45 196.84Q115.24 195.84 115.24 194.02L117.40 194.02Q117.40 194.93 118.05 195.44Q118.70 195.96 119.87 195.96L120.93 195.96Q122.13 195.96 122.79 195.43Q123.45 194.90 123.45 193.94Q123.45 192.24 121.89 192.02L118.24 191.50Q116.90 191.30 116.15 190.38Q115.41 189.46 115.41 187.94Q115.41 186.22 116.60 185.23Q117.78 184.25 119.87 184.25L120.93 184.25Q122.85 184.25 124.06 185.20Q125.27 186.14 125.37 187.68L123.18 187.68Q123.14 186.98 122.52 186.53Q121.91 186.07 120.93 186.07L119.87 186.07Q118.77 186.07 118.14 186.58Q117.52 187.08 117.52 187.94Q117.52 189.34 118.79 189.53L122.20 190.01Q125.56 190.49 125.56 193.94Q125.56 195.79 124.35 196.81Q123.14 197.83 120.93 197.83" fill="white" fill-opacity="0.7"/>
<path d="M145.41 197.64L143.20 197.64L147.76 180.12L150.66 180.12L155.20 197.64L153.02 197.64L151.86 192.98L146.56 192.98L145.41 197.64M148.34 185.74L146.99 191.16L151.41 191.16L150.06 185.76Q149.68 184.22 149.46 183.19Q149.25 182.16 149.20 181.85Q149.15 182.16 148.94 183.19Q148.72 184.22 148.34 185.74" fill="white" fill-opacity="0.7"/>
<path d="M160.77 197.64L158.61 197.64L158.61 180.12L164.25 180.12Q166.70 180.12 168.15 181.52Q169.60 182.93 169.60 185.28Q169.60 187.63 168.15 189.04Q166.70 190.44 164.25 190.44L160.77 190.44L160.77 197.64M160.77 182.06L160.77 188.50L164.25 188.50Q165.66 188.50 166.52 187.62Q167.37 186.74 167.37 185.28Q167.37 183.79 166.52 182.93Q165.66 182.06 164.25 182.06" fill="white" fill-opacity="0.7"/>
<path d="M182.68 197.64L173.32 197.64L173.32 195.67L176.90 195.67L176.90 182.09L173.32 182.09L173.32 180.12L182.68 180.12L182.68 182.09L179.10 182.09L179.10 195.67L182.68 195.67" fill="white" fill-opacity="0.7"/>
<path d="M212.92 197.64L201.64 197.64L201.64 195.67L206.32 195.67L206.32 186.41L202.12 186.41L202.12 184.44L208.48 184.44L208.48 195.67L212.92 195.67L212.92 197.64M207.16 182.06Q206.37 182.06 205.91 181.66Q205.46 181.25 205.46 180.55Q205.46 179.83 205.91 179.41Q206.37 178.99 207.16 178.99Q207.95 178.99 208.41 179.41Q208.86 179.83 208.86 180.55Q208.86 181.25 208.41 181.66Q207.95 182.06 207.16 182.06" fill="white" fill-opacity="0.7"/>
<path d="M221.73 197.83L220.67 197.83Q218.46 197.83 217.25 196.84Q216.04 195.84 216.04 194.02L218.20 194.02Q218.20 194.93 218.85 195.44Q219.50 195.96 220.67 195.96L221.73 195.96Q222.93 195.96 223.59 195.43Q224.25 194.90 224.25 193.94Q224.25 192.24 222.69 192.02L219.04 191.50Q217.70 191.30 216.95 190.38Q216.21 189.46 216.21 187.94Q216.21 186.22 217.40 185.23Q218.58 184.25 220.67 184.25L221.73 184.25Q223.65 184.25 224.86 185.20Q226.07 186.14 226.17 187.68L223.98 187.68Q223.94 186.98 223.32 186.53Q222.71 186.07 221.73 186.07L220.67 186.07Q219.57 186.07 218.94 186.58Q218.32 187.08 218.32 187.94Q218.32 189.34 219.59 189.53LNaN 190.01Q226.36 190.49 226.36 193.94Q226.36 195.79 225.15 196.81Q223.94 197.83 221.73 197.83" fill="white" fill-opacity="0.7"/>
<path d="M255.16 197.64L251.32 197.64Q249.69 197.64 248.70 196.69Q247.72 195.74 247.72 194.16L247.72 186.41L243.93 186.41L243.93 184.44L247.72 184.44L247.72 180.72L249.88 180.72L249.88 184.44L255.28 184.44L255.28 186.41L249.88 186.41L249.88 194.16Q249.88 194.83 250.28 195.25Q250.67 195.67 251.32 195.67L255.16 195.67" fill="white" fill-opacity="0.7"/>
<path d="M261.57 197.64L259.41 197.64L259.41 180.12L261.57 180.12L261.57 186.96L261.59 186.96Q261.76 185.64 262.67 184.92Q263.58 184.20 265.10 184.20Q267.09 184.20 268.26 185.42Q269.44 186.65 269.44 188.76L269.44 197.64L267.28 197.64L267.28 189.12Q267.28 187.63 266.52 186.83Q265.77 186.02 264.47 186.02Q263.13 186.02 262.35 186.86Q261.57 187.70 261.57 189.24" fill="white" fill-opacity="0.7"/>
<path d="M278.80 197.88Q276.47 197.88 275.04 196.48Q273.62 195.07 273.62 192.60L273.62 189.48Q273.62 187.01 275.04 185.60Q276.47 184.20 278.80 184.20Q280.36 184.20 281.52 184.82Q282.69 185.45 283.34 186.58Q283.98 187.70 283.98 189.24L283.98 191.59L275.73 191.59L275.73 192.84Q275.73 194.30 276.57 195.16Q277.41 196.01 278.80 196.01Q280 196.01 280.78 195.54Q281.56 195.07 281.73 194.28L283.89 194.28Q283.67 195.94 282.28 196.91Q280.89 197.88 278.80 197.88M275.73 189.24L275.73 189.91L281.87 189.91L281.87 189.24Q281.87 187.68 281.07 186.83Q280.26 185.98 278.80 185.98Q277.34 185.98 276.53 186.83Q275.73 187.68 275.73 189.24" fill="white" fill-opacity="0.7"/>
<path d="M303.86 197.64L301.84 197.64L301.84 184.44L303.71 184.44L303.71 186.19L303.76 186.19Q303.88 185.30 304.47 184.75Q305.06 184.20 305.97 184.20Q306.83 184.20 307.43 184.70Q308.03 185.21 308.30 186.07L308.32 186.07Q308.49 185.21 309.08 184.70Q309.66 184.20 310.58 184.20Q311.85 184.20 312.60 185.15Q313.36 186.10 313.36 187.61L313.36 197.64L311.34 197.64L311.34 187.58Q311.34 186.79 310.96 186.32Q310.58 185.86 309.90 185.86Q309.26 185.86 308.87 186.31Q308.49 186.77 308.49 187.56L308.49 197.64L306.71 197.64L306.71 187.58Q306.71 186.79 306.33 186.32Q305.94 185.86 305.30 185.86Q304.62 185.86 304.24 186.31Q303.86 186.77 303.86 187.56" fill="white" fill-opacity="0.7"/>
<path d="M320.85 197.88Q318.81 197.88 317.61 196.74Q316.41 195.60 316.41 193.75Q316.41 192.53 316.96 191.62Q317.51 190.70 318.50 190.19Q319.48 189.67 320.75 189.67L324.83 189.67L324.83 188.64Q324.83 186.07 322.02 186.07Q320.78 186.07 320.01 186.53Q319.24 186.98 319.19 187.80L317.03 187.80Q317.15 186.24 318.48 185.22Q319.82 184.20 322.02 184.20Q324.42 184.20 325.71 185.35Q326.99 186.50 326.99 188.57L326.99 197.64L324.86 197.64L324.86 195.24L324.81 195.24Q324.62 196.46 323.58 197.17Q322.55 197.88 320.85 197.88M321.38 196.06Q322.96 196.06 323.90 195.29Q324.83 194.52 324.83 193.20L324.83 191.35L320.99 191.35Q319.94 191.35 319.28 191.99Q318.62 192.62 318.62 193.68Q318.62 194.78 319.35 195.42Q320.08 196.06 321.38 196.06" fill="white" fill-opacity="0.7"/>
<path d="M342.52 197.64L331.24 197.64L331.24 195.67L335.92 195.67L335.92 186.41L331.72 186.41L331.72 184.44L338.08 184.44L338.08 195.67L342.52 195.67L342.52 197.64M336.76 182.06Q335.97 182.06 335.51 181.66Q335.06 181.25 335.06 180.55Q335.06 179.83 335.51 179.41Q335.97 178.99 336.76 178.99Q337.55 178.99 338.01 179.41Q338.46 179.83 338.46 180.55Q338.46 181.25 338.01 181.66Q337.55 182.06 336.76 182.06" fill="white" fill-opacity="0.7"/>
<path d="M347.97 197.64L345.81 197.64L345.81 184.44L347.97 184.44L347.97 186.96L347.99 186.96Q348.16 185.64 349.07 184.92Q349.98 184.20 351.50 184.20Q353.49 184.20 354.66 185.42Q355.84 186.65 355.84 188.76L355.84 197.64L353.68 197.64L353.68 189.14Q353.68 187.63 352.92 186.83Q352.17 186.02 350.87 186.02Q349.53 186.02 348.75 186.86Q347.97 187.70 347.97 189.24" fill="white" fill-opacity="0.7"/>
<path d="M379.60 197.88Q377.27 197.88 375.84 196.48Q374.42 195.07 374.42 192.60L374.42 189.48Q374.42 187.01 375.84 185.60Q377.27 184.20 379.60 184.20Q381.16 184.20 382.32 184.82Q383.49 185.45 384.14 186.58Q384.78 187.70 384.78 189.24L384.78 191.59L376.53 191.59L376.53 192.84Q376.53 194.30 377.37 195.16Q378.21 196.01 379.60 196.01Q380.80 196.01 381.58 195.54Q382.36 195.07 382.53 194.28L384.69 194.28Q384.47 195.94 383.08 196.91Q381.69 197.88 379.60 197.88M376.53 189.24L376.53 189.91L382.67 189.91L382.67 189.24Q382.67 187.68 381.87 186.83Q381.06 185.98 379.60 185.98Q378.14 185.98 377.33 186.83Q376.53 187.68 376.53 189.24" fill="white" fill-opacity="0.7"/>
<path d="M391.17 197.64L389.01 197.64L389.01 184.44L391.17 184.44L391.17 186.96L391.19 186.96Q391.36 185.64 392.27 184.92Q393.18 184.20 394.70 184.20Q396.69 184.20 397.86 185.42Q399.04 186.65 399.04 188.76L399.04 197.64L396.88 197.64L396.88 189.14Q396.88 187.63 396.12 186.83Q395.37 186.02 394.07 186.02Q392.73 186.02 391.95 186.86Q391.17 187.70 391.17 189.24" fill="white" fill-opacity="0.7"/>
<path d="M413.56 197.64L409.72 197.64Q408.09 197.64 407.10 196.69Q406.12 195.74 406.12 194.16L406.12 186.41L402.33 186.41L402.33 184.44L406.12 184.44L406.12 180.72L408.28 180.72L408.28 184.44L413.68 184.44L413.68 186.41L408.28 186.41L408.28 194.16Q408.28 194.83 408.68 195.25Q409.07 195.67 409.72 195.67L413.56 195.67" fill="white" fill-opacity="0.7"/>
<path d="M420.45 197.64L418.29 197.64L418.29 184.44L420.45 184.44L420.45 186.96L420.50 186.96Q420.66 185.69 421.58 184.94Q422.49 184.20 424.02 184.20Q426.09 184.20 427.20 185.44Q428.32 186.67 428.32 188.95L428.32 190.08L426.16 190.08L426.16 188.95Q426.16 186.07 423.35 186.07Q421.94 186.07 421.19 186.89Q420.45 187.70 420.45 189.24" fill="white" fill-opacity="0.7"/>
<path d="M436.53 201.96L434.27 201.96L436.22 196.82L431.30 184.44L433.62 184.44L436.74 192.60Q436.94 193.08 437.10 193.61Q437.27 194.14 437.34 194.52Q437.42 194.14 437.58 193.61Q437.75 193.08 437.92 192.60L440.82 184.44L443.10 184.44" fill="white" fill-opacity="0.7"/>
<path d="M463.17 201.96L461.01 201.96L461.01 184.44L463.17 184.44L463.17 186.96L463.19 186.96Q463.36 185.66 464.32 184.93Q465.28 184.20 466.77 184.20Q468.76 184.20 469.94 185.51Q471.11 186.82 471.11 189.10L471.11 192.96Q471.11 195.24 469.94 196.56Q468.76 197.88 466.77 197.88Q465.28 197.88 464.32 197.14Q463.36 196.39 463.19 195.12L463.12 195.12L463.17 198.12L463.17 201.96M466.05 196.01Q467.42 196.01 468.18 195.29Q468.95 194.57 468.95 192.96L468.95 189.12Q468.95 187.49 468.18 186.78Q467.42 186.07 466.05 186.07Q464.73 186.07 463.95 186.91Q463.17 187.75 463.17 189.24L463.17 192.84Q463.17 194.33 463.95 195.17Q464.73 196.01 466.05 196.01" fill="white" fill-opacity="0.7"/>
<path d="M480.40 197.83Q478.02 197.83 476.62 196.44Q475.22 195.05 475.22 192.55L475.22 189.53Q475.22 187.01 476.61 185.63Q478 184.25 480.40 184.25Q482.80 184.25 484.19 185.63Q485.58 187.01 485.58 189.53L485.58 192.55Q485.58 195.05 484.18 196.44Q482.78 197.83 480.40 197.83M480.40 195.91Q481.82 195.91 482.62 195.12Q483.42 194.33 483.42 192.79L483.42 189.29Q483.42 187.75 482.62 186.96Q481.82 186.17 480.40 186.17Q479.01 186.17 478.19 186.96Q477.38 187.75 477.38 189.29L477.38 192.79Q477.38 194.33 478.19 195.12Q479.01 195.91 480.40 195.91" fill="white" fill-opacity="0.7"/>
<path d="M500.92 197.64L489.64 197.64L489.64 195.67L494.32 195.67L494.32 186.41L490.12 186.41L490.12 184.44L496.48 184.44L496.48 195.67L500.92 195.67L500.92 197.64M495.16 182.06Q494.37 182.06 493.91 181.66Q493.46 181.25 493.46 180.55Q493.46 179.83 493.91 179.41Q494.37 178.99 495.16 178.99Q495.95 178.99 496.41 179.41Q496.86 179.83 496.86 180.55Q496.86 181.25 496.41 181.66Q495.95 182.06 495.16 182.06" fill="white" fill-opacity="0.7"/>
<path d="M506.37 197.64L504.21 197.64L504.21 184.44L506.37 184.44L506.37 186.96L506.39 186.96Q506.56 185.64 507.47 184.92Q508.38 184.20 509.90 184.20Q511.89 184.20 513.06 185.42Q514.24 186.65 514.24 188.76L514.24 197.64L512.08 197.64L512.08 189.14Q512.08 187.63 511.32 186.83Q510.57 186.02 509.27 186.02Q507.93 186.02 507.15 186.86Q506.37 187.70 506.37 189.24" fill="white" fill-opacity="0.7"/>
<path d="M528.76 197.64L524.92 197.64Q523.29 197.64 522.30 196.69Q521.32 195.74 521.32 194.16L521.32 186.41L517.53 186.41L517.53 184.44L521.32 184.44L521.32 180.72L523.48 180.72L523.48 184.44L528.88 184.44L528.88 186.41L523.48 186.41L523.48 194.16Q523.48 194.83 523.88 195.25Q524.27 195.67 524.92 195.67L528.76 195.67" fill="white" fill-opacity="0.7"/>
<path d="M552.52 197.64L550.36 197.64L550.36 188.21L546.52 188.21L546.52 186.24L550.36 186.24L550.36 183.48Q550.36 181.92 551.34 181.02Q552.33 180.12 554.06 180.12L557.92 180.12L557.92 182.09L554.06 182.09Q552.52 182.09 552.52 183.48L552.52 186.24L557.92 186.24L557.92 188.21L552.52 188.21" fill="white" fill-opacity="0.7"/>
<path d="M566.80 197.83Q564.42 197.83 563.02 196.44Q561.62 195.05 561.62 192.55L561.62 189.53Q561.62 187.01 563.01 185.63Q564.40 184.25 566.80 184.25Q569.20 184.25 570.59 185.63Q571.98 187.01 571.98 189.53L571.98 192.55Q571.98 195.05 570.58 196.44Q569.18 197.83 566.80 197.83M566.80 195.91Q568.22 195.91 569.02 195.12Q569.82 194.33 569.82 192.79L569.82 189.29Q569.82 187.75 569.02 186.96Q568.22 186.17 566.80 186.17Q565.41 186.17 564.59 186.96Q563.78 187.75 563.78 189.29L563.78 192.79Q563.78 194.33 564.59 195.12Q565.41 195.91 566.80 195.91" fill="white" fill-opacity="0.7"/>
<path d="M578.85 197.64L576.69 197.64L576.69 184.44L578.85 184.44L578.85 186.96L578.90 186.96Q579.06 185.69 579.98 184.94Q580.89 184.20 582.42 184.20Q584.49 184.20 585.60 185.44Q586.72 186.67 586.72 188.95L586.72 190.08L584.56 190.08L584.56 188.95Q584.56 186.07 581.75 186.07Q580.34 186.07 579.59 186.89Q578.85 187.70 578.85 189.24" fill="white" fill-opacity="0.7"/>
<path d="M610.19 197.88Q607.79 197.88 606.35 196.54Q604.91 195.19 604.91 192.84L604.91 189.24Q604.91 186.89 606.35 185.54Q607.79 184.20 610.19 184.20Q612.47 184.20 613.88 185.42Q615.28 186.65 615.35 188.76L613.19 188.76Q613.12 187.49 612.33 186.80Q611.54 186.12 610.19 186.12Q608.78 186.12 607.92 186.92Q607.07 187.73 607.07 189.22L607.07 192.84Q607.07 194.33 607.92 195.14Q608.78 195.96 610.19 195.96Q611.54 195.96 612.33 195.26Q613.12 194.57 613.19 193.32L615.35 193.32Q615.28 195.43 613.88 196.66Q612.47 197.88 610.19 197.88" fill="white" fill-opacity="0.7"/>
<path d="M622.05 197.64L619.89 197.64L619.89 184.44L622.05 184.44L622.05 186.96L622.10 186.96Q622.26 185.69 623.18 184.94Q624.09 184.20 625.62 184.20Q627.69 184.20 628.80 185.44Q629.92 186.67 629.92 188.95L629.92 190.08L627.76 190.08L627.76 188.95Q627.76 186.07 624.95 186.07Q623.54 186.07 622.79 186.89Q622.05 187.70 622.05 189.24" fill="white" fill-opacity="0.7"/>
<path d="M638.80 197.88Q636.47 197.88 635.04 196.48Q633.62 195.07 633.62 192.60L633.62 189.48Q633.62 187.01 635.04 185.60Q636.47 184.20 638.80 184.20Q640.36 184.20 641.52 184.82Q642.69 185.45 643.34 186.58Q643.98 187.70 643.98 189.24L643.98 191.59L635.73 191.59L635.73 192.84Q635.73 194.30 636.57 195.16Q637.41 196.01 638.80 196.01Q640 196.01 640.78 195.54Q641.56 195.07 641.73 194.28L643.89 194.28Q643.67 195.94 642.28 196.91Q640.89 197.88 638.80 197.88M635.73 189.24L635.73 189.91L641.87 189.91L641.87 189.24Q641.87 187.68 641.07 186.83Q640.26 185.98 638.80 185.98Q637.34 185.98 636.53 186.83Q635.73 187.68 635.73 189.24" fill="white" fill-opacity="0.7"/>
<path d="M652.05 197.88Q650.01 197.88 648.81 196.74Q647.61 195.60 647.61 193.75Q647.61 192.53 648.16 191.62Q648.71 190.70 649.70 190.19Q650.68 189.67 651.95 189.67L656.03 189.67L656.03 188.64Q656.03 186.07 653.22 186.07Q651.98 186.07 651.21 186.53Q650.44 186.98 650.39 187.80L648.23 187.80Q648.35 186.24 649.68 185.22Q651.02 184.20 653.22 184.20Q655.62 184.20 656.91 185.35Q658.19 186.50 658.19 188.57L658.19 197.64L656.06 197.64L656.06 195.24L656.01 195.24Q655.82 196.46 654.78 197.17Q653.75 197.88 652.05 197.88M652.58 196.06Q654.16 196.06 655.10 195.29Q656.03 194.52 656.03 193.20L656.03 191.35L652.19 191.35Q651.14 191.35 650.48 191.99Q649.82 192.62 649.82 193.68Q649.82 194.78 650.55 195.42Q651.28 196.06 652.58 196.06" fill="white" fill-opacity="0.7"/>
<path d="M672.76 197.64L668.92 197.64Q667.29 197.64 666.30 196.69Q665.32 195.74 665.32 194.16L665.32 186.41L661.53 186.41L661.53 184.44L665.32 184.44L665.32 180.72L667.48 180.72L667.48 184.44L672.88 184.44L672.88 186.41L667.48 186.41L667.48 194.16Q667.48 194.83 667.88 195.25Q668.27 195.67 668.92 195.67L672.76 195.67" fill="white" fill-opacity="0.7"/>
<path d="M688.12 197.64L676.84 197.64L676.84 195.67L681.52 195.67L681.52 186.41L677.32 186.41L677.32 184.44L683.68 184.44L683.68 195.67L688.12 195.67L688.12 197.64M682.36 182.06Q681.57 182.06 681.11 181.66Q680.66 181.25 680.66 180.55Q680.66 179.83 681.11 179.41Q681.57 178.99 682.36 178.99Q683.15 178.99 683.61 179.41Q684.06 179.83 684.06 180.55Q684.06 181.25 683.61 181.66Q683.15 182.06 682.36 182.06" fill="white" fill-opacity="0.7"/>
<path d="M693.57 197.64L691.41 197.64L691.41 184.44L693.57 184.44L693.57 186.96L693.59 186.96Q693.76 185.64 694.67 184.92Q695.58 184.20 697.10 184.20Q699.09 184.20 700.26 185.42Q701.44 186.65 701.44 188.76L701.44 197.64L699.28 197.64L699.28 189.14Q699.28 187.63 698.52 186.83Q697.77 186.02 696.47 186.02Q695.13 186.02 694.35 186.86Q693.57 187.70 693.57 189.24" fill="white" fill-opacity="0.7"/>
<path d="M711.16 201.96L707.46 201.96L707.46 199.99L711.18 199.99Q712.31 199.99 712.96 199.36Q713.61 198.72 713.61 197.64L713.61 196.44L713.66 194.28L713.58 194.28Q713.39 195.46 712.46 196.09Q711.52 196.73 710.10 196.73Q708.06 196.73 706.89 195.43Q705.71 194.14 705.71 191.88L705.71 189.10Q705.71 186.84 706.89 185.52Q708.06 184.20 710.10 184.20Q711.52 184.20 712.46 184.87Q713.39 185.54 713.58 186.72L713.63 186.72L713.63 184.44L715.77 184.44L715.77 197.64Q715.77 199.63 714.53 200.80Q713.30 201.96 711.16 201.96M710.75 194.93Q712.10 194.93 712.86 194.09Q713.63 193.25 713.63 191.76L713.63 189.24Q713.63 187.75 712.86 186.91Q712.10 186.07 710.75 186.07Q709.38 186.07 708.63 186.86Q707.87 187.66 707.87 189L707.87 192Q707.87 193.34 708.63 194.14Q709.38 194.93 710.75 194.93" fill="white" fill-opacity="0.7"/>
<path d="M725.27 201.48L723.04 201.48L724.36 194.14L726.95 194.14" fill="white" fill-opacity="0.7"/>
<path d="M754 197.88Q751.67 197.88 750.24 196.48Q748.82 195.07 748.82 192.60L748.82 189.48Q748.82 187.01 750.24 185.60Q751.67 184.20 754 184.20Q755.56 184.20 756.72 184.82Q757.89 185.45 758.54 186.58Q759.18 187.70 759.18 189.24L759.18 191.59L750.93 191.59L750.93 192.84Q750.93 194.30 751.77 195.16Q752.61 196.01 754 196.01Q755.20 196.01 755.98 195.54Q756.76 195.07 756.93 194.28L759.09 194.28Q758.87 195.94 757.48 196.91Q756.09 197.88 754 197.88M750.93 189.24L750.93 189.91L757.07 189.91L757.07 189.24Q757.07 187.68 756.27 186.83Q755.46 185.98 754 185.98Q752.54 185.98 751.73 186.83Q750.93 187.68 750.93 189.24" fill="white" fill-opacity="0.7"/>
<path d="M767.63 197.88Q765.66 197.88 764.48 196.56Q763.29 195.24 763.29 192.98L763.29 189.12Q763.29 186.84 764.46 185.52Q765.64 184.20 767.63 184.20Q769.12 184.20 770.09 184.94Q771.06 185.69 771.26 186.96L771.28 186.96L771.23 183.96L771.23 180.12L773.39 180.12L773.39 197.64L771.23 197.64L771.23 195.12L771.21 195.12Q771.04 196.42 770.08 197.15Q769.12 197.88 767.63 197.88M768.35 196.01Q769.70 196.01 770.46 195.17Q771.23 194.33 771.23 192.84L771.23 189.24Q771.23 187.75 770.46 186.91Q769.70 186.07 768.35 186.07Q766.98 186.07 766.22 186.78Q765.45 187.49 765.45 189.12L765.45 192.96Q765.45 194.57 766.22 195.29Q766.98 196.01 768.35 196.01" fill="white" fill-opacity="0.7"/>
<path d="M788.92 197.64L777.64 197.64L777.64 195.67L782.32 195.67L782.32 186.41L778.12 186.41L778.12 184.44L784.48 184.44L784.48 195.67L788.92 195.67L788.92 197.64M783.16 182.06Q782.37 182.06 781.91 181.66Q781.46 181.25 781.46 180.55Q781.46 179.83 781.91 179.41Q782.37 178.99 783.16 178.99Q783.95 178.99 784.41 179.41Q784.86 179.83 784.86 180.55Q784.86 181.25 784.41 181.66Q783.95 182.06 783.16 182.06" fill="white" fill-opacity="0.7"/>
<path d="M802.36 197.64L798.52 197.64Q796.89 197.64 795.90 196.69Q794.92 195.74 794.92 194.16L794.92 186.41L791.13 186.41L791.13 184.44L794.92 184.44L794.92 180.72L797.08 180.72L797.08 184.44L802.48 184.44L802.48 186.41L797.08 186.41L797.08 194.16Q797.08 194.83 797.48 195.25Q797.87 195.67 798.52 195.67L802.36 195.67" fill="white" fill-opacity="0.7"/>
<path d="M817.72 197.64L806.44 197.64L806.44 195.67L811.12 195.67L811.12 186.41L806.92 186.41L806.92 184.44L813.28 184.44L813.28 195.67L817.72 195.67L817.72 197.64M811.96 182.06Q811.17 182.06 810.71 181.66Q810.26 181.25 810.26 180.55Q810.26 179.83 810.71 179.41Q811.17 178.99 811.96 178.99Q812.75 178.99 813.21 179.41Q813.66 179.83 813.66 180.55Q813.66 181.25 813.21 181.66Q812.75 182.06 811.96 182.06" fill="white" fill-opacity="0.7"/>
<path d="M823.17 197.64L821.01 197.64L821.01 184.44L823.17 184.44L823.17 186.96L823.19 186.96Q823.36 185.64 824.27 184.92Q825.18 184.20 826.70 184.20Q828.69 184.20 829.86 185.42Q831.04 186.65 831.04 188.76L831.04 197.64L828.88 197.64L828.88 189.14Q828.88 187.63 828.12 186.83Q827.37 186.02 826.07 186.02Q824.73 186.02 823.95 186.86Q823.17 187.70 823.17 189.24" fill="white" fill-opacity="0.7"/>
<path d="M840.76 201.96L837.06 201.96L837.06 199.99L840.78 199.99Q841.91 199.99 842.56 199.36Q843.21 198.72 843.21 197.64L843.21 196.44L843.26 194.28L843.18 194.28Q842.99 195.46 842.06 196.09Q841.12 196.73 839.70 196.73Q837.66 196.73 836.49 195.43Q835.31 194.14 835.31 191.88L835.31 189.10Q835.31 186.84 836.49 185.52Q837.66 184.20 839.70 184.20Q841.12 184.20 842.06 184.87Q842.99 185.54 843.18 186.72L843.23 186.72L843.23 184.44L845.37 184.44L845.37 197.64Q845.37 199.63 844.13 200.80Q842.90 201.96 840.76 201.96M840.35 194.93Q841.70 194.93 842.46 194.09Q843.23 193.25 843.23 191.76L843.23 189.24Q843.23 187.75 842.46 186.91Q841.70 186.07 840.35 186.07Q838.98 186.07 838.23 186.86Q837.47 187.66 837.47 189L837.47 192Q837.47 193.34 838.23 194.14Q838.98 194.93 840.35 194.93" fill="white" fill-opacity="0.7"/>
<path d="M868.05 197.88Q866.01 197.88 864.81 196.74Q863.61 195.60 863.61 193.75Q863.61 192.53 864.16 191.62Q864.71 190.70 865.70 190.19Q866.68 189.67 867.95 189.67L872.03 189.67L872.03 188.64Q872.03 186.07 869.22 186.07Q867.98 186.07 867.21 186.53Q866.44 186.98 866.39 187.80L864.23 187.80Q864.35 186.24 865.68 185.22Q867.02 184.20 869.22 184.20Q871.62 184.20 872.91 185.35Q874.19 186.50 874.19 188.57L874.19 197.64L872.06 197.64L872.06 195.24L872.01 195.24Q871.82 196.46 870.78 197.17Q869.75 197.88 868.05 197.88M868.58 196.06Q870.16 196.06 871.10 195.29Q872.03 194.52 872.03 193.20L872.03 191.35L868.19 191.35Q867.14 191.35 866.48 191.99Q865.82 192.62 865.82 193.68Q865.82 194.78 866.55 195.42Q867.28 196.06 868.58 196.06" fill="white" fill-opacity="0.7"/>
<path d="M880.77 197.64L878.61 197.64L878.61 184.44L880.77 184.44L880.77 186.96L880.79 186.96Q880.96 185.64 881.87 184.92Q882.78 184.20 884.30 184.20Q886.29 184.20 887.46 185.42Q888.64 186.65 888.64 188.76L888.64 197.64L886.48 197.64L886.48 189.14Q886.48 187.63 885.72 186.83Q884.97 186.02 883.67 186.02Q882.33 186.02 881.55 186.86Q880.77 187.70 880.77 189.24" fill="white" fill-opacity="0.7"/>
<path d="M897.23 197.88Q895.26 197.88 894.08 196.56Q892.89 195.24 892.89 192.98L892.89 189.12Q892.89 186.84 894.06 185.52Q895.24 184.20 897.23 184.20Q898.72 184.20 899.69 184.94Q900.66 185.69 900.86 186.96L900.88 186.96L900.83 183.96L900.83 180.12L902.99 180.12L902.99 197.64L900.83 197.64L900.83 195.12L900.81 195.12Q900.64 196.42 899.68 197.15Q898.72 197.88 897.23 197.88M897.95 196.01Q899.30 196.01 900.06 195.17Q900.83 194.33 900.83 192.84L900.83 189.24Q900.83 187.75 900.06 186.91Q899.30 186.07 897.95 186.07Q896.58 186.07 895.82 186.78Q895.05 187.49 895.05 189.12L895.05 192.96Q895.05 194.57 895.82 195.29Q896.58 196.01 897.95 196.01" fill="white" fill-opacity="0.7"/>
<path d="M923.97 201.96L921.81 201.96L921.81 184.44L923.97 184.44L923.97 186.96L923.99 186.96Q924.16 185.66 925.12 184.93Q926.08 184.20 927.57 184.20Q929.56 184.20 930.74 185.51Q931.91 186.82 931.91 189.10L931.91 192.96Q931.91 195.24 930.74 196.56Q929.56 197.88 927.57 197.88Q926.08 197.88 925.12 197.14Q924.16 196.39 923.99 195.12L923.92 195.12L923.97 198.12L923.97 201.96M926.85 196.01Q928.22 196.01 928.98 195.29Q929.75 194.57 929.75 192.96L929.75 189.12Q929.75 187.49 928.98 186.78Q928.22 186.07 926.85 186.07Q925.53 186.07 924.75 186.91Q923.97 187.75 923.97 189.24L923.97 192.84Q923.97 194.33 924.75 195.17Q925.53 196.01 926.85 196.01" fill="white" fill-opacity="0.7"/>
<path d="M941.18 197.88Q938.90 197.88 937.53 196.52Q936.16 195.17 936.16 192.84L936.16 184.44L938.32 184.44L938.32 192.84Q938.32 194.28 939.09 195.13Q939.86 195.98 941.18 195.98Q942.52 195.98 943.30 195.13Q944.08 194.28 944.08 192.84L944.08 184.44L946.24 184.44L946.24 192.84Q946.24 195.17 944.85 196.52Q943.46 197.88 941.18 197.88" fill="white" fill-opacity="0.7"/>
<path d="M956.37 197.88Q954.88 197.88 953.92 197.15Q952.96 196.42 952.79 195.12L952.77 195.12L952.77 197.64L950.61 197.64L950.61 180.12L952.77 180.12L952.77 183.96L952.72 186.96L952.74 186.96Q952.94 185.69 953.91 184.94Q954.88 184.20 956.37 184.20Q958.36 184.20 959.54 185.52Q960.71 186.84 960.71 189.12L960.71 192.98Q960.71 195.24 959.54 196.56Q958.36 197.88 956.37 197.88M955.65 196.01Q957.02 196.01 957.78 195.29Q958.55 194.57 958.55 192.96L958.55 189.12Q958.55 187.49 957.78 186.78Q957.02 186.07 955.65 186.07Q954.33 186.07 953.55 186.91Q952.77 187.75 952.77 189.24L952.77 192.84Q952.77 194.33 953.55 195.17Q954.33 196.01 955.65 196.01" fill="white" fill-opacity="0.7"/>
<path d="M976 197.64L971.92 197.64Q970.17 197.64 969.12 196.62Q968.08 195.60 968.08 193.92L968.08 182.09L963.52 182.09L963.52 180.12L970.24 180.12L970.24 193.92Q970.24 194.74 970.70 195.20Q971.15 195.67 971.92 195.67L976 195.67" fill="white" fill-opacity="0.7"/>
<path d="M990.52 197.64L979.24 197.64L979.24 195.67L983.92 195.67L983.92 186.41L979.72 186.41L979.72 184.44L986.08 184.44L986.08 195.67L990.52 195.67L990.52 197.64M984.76 182.06Q983.97 182.06 983.51 181.66Q983.06 181.25 983.06 180.55Q983.06 179.83 983.51 179.41Q983.97 178.99 984.76 178.99Q985.55 178.99 986.01 179.41Q986.46 179.83 986.46 180.55Q986.46 181.25 986.01 181.66Q985.55 182.06 984.76 182.06" fill="white" fill-opacity="0.7"/>
<path d="M999.33 197.83L998.27 197.83Q996.06 197.83 994.85 196.84Q993.64 195.84 993.64 194.02L995.80 194.02Q995.80 194.93 996.45 195.44Q997.10 195.96 998.27 195.96L999.33 195.96Q1000.53 195.96 1001.19 195.43Q1001.85 194.90 1001.85 193.94Q1001.85 192.24 1000.29 192.02L996.64 191.50Q995.30 191.30 994.55 190.38Q993.81 189.46 993.81 187.94Q993.81 186.22 995 185.23Q996.18 184.25 998.27 184.25L999.33 184.25Q1001.25 184.25 1002.46 185.20Q1003.67 186.14 1003.77 187.68L1001.58 187.68Q1001.54 186.98 1000.92 186.53Q1000.31 186.07 999.33 186.07L998.27 186.07Q997.17 186.07 996.54 186.58Q995.92 187.08 995.92 187.94Q995.92 189.34 997.19 189.53L1000.60 190.01Q1003.96 190.49 1003.96 193.94Q1003.96 195.79 1002.75 196.81Q1001.54 197.83 999.33 197.83" fill="white" fill-opacity="0.7"/>
<path d="M1010.37 197.64L1008.21 197.64L1008.21 180.12L1010.37 180.12L1010.37 186.96L1010.39 186.96Q1010.56 185.64 1011.47 184.92Q1012.38 184.20 1013.90 184.20Q1015.89 184.20 1017.06 185.42Q1018.24 186.65 1018.24 188.76L1018.24 197.64L1016.08 197.64L1016.08 189.12Q1016.08 187.63 1015.32 186.83Q1014.57 186.02 1013.27 186.02Q1011.93 186.02 1011.15 186.86Q1010.37 187.70 1010.37 189.24" fill="white" fill-opacity="0.7"/>
<path d="M1033.72 197.64L1022.44 197.64L1022.44 195.67L1027.12 195.67L1027.12 186.41L1022.92 186.41L1022.92 184.44L1029.28 184.44L1029.28 195.67L1033.72 195.67L1033.72 197.64M1027.96 182.06Q1027.17 182.06 1026.71 181.66Q1026.26 181.25 1026.26 180.55Q1026.26 179.83 1026.71 179.41Q1027.17 178.99 1027.96 178.99Q1028.75 178.99 1029.21 179.41Q1029.66 179.83 1029.66 180.55Q1029.66 181.25 1029.21 181.66Q1028.75 182.06 1027.96 182.06" fill="white" fill-opacity="0.7"/>
<path d="M1039.17 197.64L1037.01 197.64L1037.01 184.44L1039.17 184.44L1039.17 186.96L1039.19 186.96Q1039.36 185.64 1040.27 184.92Q1041.18 184.20 1042.70 184.20Q1044.69 184.20 1045.86 185.42Q1047.04 186.65 1047.04 188.76L1047.04 197.64L1044.88 197.64L1044.88 189.14Q1044.88 187.63 1044.12 186.83Q1043.37 186.02 1042.07 186.02Q1040.73 186.02 1039.95 186.86Q1039.17 187.70 1039.17 189.24" fill="white" fill-opacity="0.7"/>
<path d="M1056.76 201.96L1053.06 201.96L1053.06 199.99L1056.78 199.99Q1057.91 199.99 1058.56 199.36Q1059.21 198.72 1059.21 197.64L1059.21 196.44L1059.26 194.28L1059.18 194.28Q1058.99 195.46 1058.06 196.09Q1057.12 196.73 1055.70 196.73Q1053.66 196.73 1052.49 195.43Q1051.31 194.14 1051.31 191.88L1051.31 189.10Q1051.31 186.84 1052.49 185.52Q1053.66 184.20 1055.70 184.20Q1057.12 184.20 1058.06 184.87Q1058.99 185.54 1059.18 186.72L1059.23 186.72L1059.23 184.44L1061.37 184.44L1061.37 197.64Q1061.37 199.63 1060.13 200.80Q1058.90 201.96 1056.76 201.96M1056.35 194.93Q1057.70 194.93 1058.46 194.09Q1059.23 193.25 1059.23 191.76L1059.23 189.24Q1059.23 187.75 1058.46 186.91Q1057.70 186.07 1056.35 186.07Q1054.98 186.07 1054.23 186.86Q1053.47 187.66 1053.47 189L1053.47 192Q1053.47 193.34 1054.23 194.14Q1054.98 194.93 1056.35 194.93" fill="white" fill-opacity="0.7"/>
<path d="M76.05 229.88Q74.01 229.88 72.81 228.74Q71.61 227.60 71.61 225.75Q71.61 224.53 72.16 223.62Q72.71 222.70 73.70 222.19Q74.68 221.67 75.95 221.67L80.03 221.67L80.03 220.64Q80.03 218.07 77.22 218.07Q75.98 218.07 75.21 218.53Q74.44 218.98 74.39 219.80L72.23 219.80Q72.35 218.24 73.68 217.22Q75.02 216.20 77.22 216.20Q79.62 216.20 80.91 217.35Q82.19 218.50 82.19 220.57L82.19 229.64L80.06 229.64L80.06 227.24L80.01 227.24Q79.82 228.46 78.78 229.17Q77.75 229.88 76.05 229.88M76.58 228.06Q78.16 228.06 79.10 227.29Q80.03 226.52 80.03 225.20L80.03 223.35L76.19 223.35Q75.14 223.35 74.48 223.99Q73.82 224.62 73.82 225.68Q73.82 226.78 74.55 227.42Q75.28 228.06 76.58 228.06" fill="white" fill-opacity="0.7"/>
<path d="M88.77 229.64L86.61 229.64L86.61 216.44L88.77 216.44L88.77 218.96L88.79 218.96Q88.96 217.64 89.87 216.92Q90.78 216.20 92.30 216.20Q94.29 216.20 95.46 217.42Q96.64 218.65 96.64 220.76L96.64 229.64L94.48 229.64L94.48 221.14Q94.48 219.63 93.72 218.83Q92.97 218.02 91.67 218.02Q90.33 218.02 89.55 218.86Q88.77 219.70 88.77 221.24" fill="white" fill-opacity="0.7"/>
<path d="M104.85 229.88Q102.81 229.88 101.61 228.74Q100.41 227.60 100.41 225.75Q100.41 224.53 100.96 223.62Q101.51 222.70 102.50 222.19Q103.48 221.67 104.75 221.67L108.83 221.67L108.83 220.64Q108.83 218.07 106.02 218.07Q104.78 218.07 104.01 218.53Q103.24 218.98 103.19 219.80L101.03 219.80Q101.15 218.24 102.48 217.22Q103.82 216.20 106.02 216.20Q108.42 216.20 109.71 217.35Q110.99 218.50 110.99 220.57L110.99 229.64L108.86 229.64L108.86 227.24L108.81 227.24Q108.62 228.46 107.58 229.17Q106.55 229.88 104.85 229.88M105.38 228.06Q106.96 228.06 107.90 227.29Q108.83 226.52 108.83 225.20L108.83 223.35L104.99 223.35Q103.94 223.35 103.28 223.99Q102.62 224.62 102.62 225.68Q102.62 226.78 103.35 227.42Q104.08 228.06 105.38 228.06" fill="white" fill-opacity="0.7"/>
<path d="M126.40 229.64L122.32 229.64Q120.57 229.64 119.52 228.62Q118.48 227.60 118.48 225.92L118.48 214.09L113.92 214.09L113.92 212.12L120.64 212.12L120.64 225.92Q120.64 226.74 121.10 227.20Q121.55 227.67 122.32 227.67L126.40 227.67" fill="white" fill-opacity="0.7"/>
<path d="M134.13 233.96L131.87 233.96L133.82 228.82L128.90 216.44L131.22 216.44L134.34 224.60Q134.54 225.08 134.70 225.61Q134.87 226.14 134.94 226.52Q135.02 226.14 135.18 225.61Q135.35 225.08 135.52 224.60L138.42 216.44L140.70 216.44" fill="white" fill-opacity="0.7"/>
<path d="M154.36 229.64L150.52 229.64Q148.89 229.64 147.90 228.69Q146.92 227.74 146.92 226.16L146.92 218.41L143.13 218.41L143.13 216.44L146.92 216.44L146.92 212.72L149.08 212.72L149.08 216.44L154.48 216.44L154.48 218.41L149.08 218.41L149.08 226.16Q149.08 226.83 149.48 227.25Q149.87 227.67 150.52 227.67L154.36 227.67" fill="white" fill-opacity="0.7"/>
<path d="M169.72 229.64L158.44 229.64L158.44 227.67L163.12 227.67L163.12 218.41L158.92 218.41L158.92 216.44L165.28 216.44L165.28 227.67L169.72 227.67L169.72 229.64M163.96 214.06Q163.17 214.06 162.71 213.66Q162.26 213.25 162.26 212.55Q162.26 211.83 162.71 211.41Q163.17 210.99 163.96 210.99Q164.75 210.99 165.21 211.41Q165.66 211.83 165.66 212.55Q165.66 213.25 165.21 213.66Q164.75 214.06 163.96 214.06" fill="white" fill-opacity="0.7"/>
<path d="M178.19 229.88Q175.79 229.88 174.35 228.54Q172.91 227.19 172.91 224.84L172.91 221.24Q172.91 218.89 174.35 217.54Q175.79 216.20 178.19 216.20Q180.47 216.20 181.88 217.42Q183.28 218.65 183.35 220.76L181.19 220.76Q181.12 219.49 180.33 218.80Q179.54 218.12 178.19 218.12Q176.78 218.12 175.92 218.92Q175.07 219.73 175.07 221.22L175.07 224.84Q175.07 226.33 175.92 227.14Q176.78 227.96 178.19 227.96Q179.54 227.96 180.33 227.26Q181.12 226.57 181.19 225.32L183.35 225.32Q183.28 227.43 181.88 228.66Q180.47 229.88 178.19 229.88" fill="white" fill-opacity="0.7"/>
<path d="M192.93 229.83L191.87 229.83Q189.66 229.83 188.45 228.84Q187.24 227.84 187.24 226.02L189.40 226.02Q189.40 226.93 190.05 227.44Q190.70 227.96 191.87 227.96L192.93 227.96Q194.13 227.96 194.79 227.43Q195.45 226.90 195.45 225.94Q195.45 224.24 193.89 224.02L190.24 223.50Q188.90 223.30 188.15 222.38Q187.41 221.46 187.41 219.94Q187.41 218.22 188.60 217.23Q189.78 216.25 191.87 216.25L192.93 216.25Q194.85 216.25 196.06 217.20Q197.27 218.14 197.37 219.68L195.18 219.68Q195.14 218.98 194.52 218.53Q193.91 218.07 192.93 218.07L191.87 218.07Q190.77 218.07 190.14 218.58Q189.52 219.08 189.52 219.94Q189.52 221.34 190.79 221.53L194.20 222.01Q197.56 222.49 197.56 225.94Q197.56 227.79 196.35 228.81Q195.14 229.83 192.93 229.83" fill="white" fill-opacity="0.7"/>
<path d="M226.36 229.64L222.52 229.64Q220.89 229.64 219.90 228.69Q218.92 227.74 218.92 226.16L218.92 218.41L215.13 218.41L215.13 216.44L218.92 216.44L218.92 212.72L221.08 212.72L221.08 216.44L226.48 216.44L226.48 218.41L221.08 218.41L221.08 226.16Q221.08 226.83 221.48 227.25Q221.87 227.67 222.52 227.67L226.36 227.67" fill="white" fill-opacity="0.7"/>
<path d="M232.77 229.64L230.61 229.64L230.61 212.12L232.77 212.12L232.77 218.96L232.79 218.96Q232.96 217.64 233.87 216.92Q234.78 216.20 236.30 216.20Q238.29 216.20 239.46 217.42Q240.64 218.65 240.64 220.76L240.64 229.64L238.48 229.64L238.48 221.12Q238.48 219.63 237.72 218.83Q236.97 218.02 235.67 218.02Q234.33 218.02 233.55 218.86Q232.77 219.70 232.77 221.24" fill="white" fill-opacity="0.7"/>
<path d="M247.65 229.64L245.49 229.64L245.49 216.44L247.65 216.44L247.65 218.96L247.70 218.96Q247.86 217.69 248.78 216.94Q249.69 216.20 251.22 216.20Q253.29 216.20 254.40 217.44Q255.52 218.67 255.52 220.95L255.52 222.08L253.36 222.08L253.36 220.95Q253.36 218.07 250.55 218.07Q249.14 218.07 248.39 218.89Q247.65 219.70 247.65 221.24" fill="white" fill-opacity="0.7"/>
<path d="M264.40 229.83Q262.02 229.83 260.62 228.44Q259.22 227.05 259.22 224.55L259.22 221.53Q259.22 219.01 260.61 217.63QNaN 216.25 264.40 216.25Q266.80 216.25 268.19 217.63Q269.58 219.01 269.58 221.53L269.58 224.55Q269.58 227.05 268.18 228.44Q266.78 229.83 264.40 229.83M264.40 227.91Q265.82 227.91 266.62 227.12Q267.42 226.33 267.42 224.79L267.42 221.29Q267.42 219.75 266.62 218.96Q265.82 218.17 264.40 218.17Q263.01 218.17 262.19 218.96Q261.38 219.75 261.38 221.29L261.38 224.79Q261.38 226.33 262.19 227.12Q263.01 227.91 264.40 227.91" fill="white" fill-opacity="0.7"/>
<path d="M278.78 229.88Q276.50 229.88 275.13 228.52Q273.76 227.17 273.76 224.84L273.76 216.44L275.92 216.44L275.92 224.84Q275.92 226.28 276.69 227.13Q277.46 227.98 278.78 227.98Q280.12 227.98 280.90 227.13Q281.68 226.28 281.68 224.84L281.68 216.44L283.84 216.44L283.84 224.84Q283.84 227.17 282.45 228.52Q281.06 229.88 278.78 229.88" fill="white" fill-opacity="0.7"/>
<path d="M293.56 233.96L289.86 233.96L289.86 231.99L293.58 231.99Q294.71 231.99 295.36 231.36Q296.01 230.72 296.01 229.64L296.01 228.44L296.06 226.28L295.98 226.28Q295.79 227.46 294.86 228.09Q293.92 228.73 292.50 228.73Q290.46 228.73 289.29 227.43Q288.11 226.14 288.11 223.88L288.11 221.10Q288.11 218.84 289.29 217.52Q290.46 216.20 292.50 216.20Q293.92 216.20 294.86 216.87Q295.79 217.54 295.98 218.72L296.03 218.72L296.03 216.44L298.17 216.44L298.17 229.64Q298.17 231.63 296.93 232.80Q295.70 233.96 293.56 233.96M293.15 226.93Q294.50 226.93 295.26 226.09Q296.03 225.25 296.03 223.76L296.03 221.24Q296.03 219.75 295.26 218.91Q294.50 218.07 293.15 218.07Q291.78 218.07 291.03 218.86Q290.27 219.66 290.27 221L290.27 224Q290.27 225.34 291.03 226.14Q291.78 226.93 293.15 226.93" fill="white" fill-opacity="0.7"/>
<path d="M304.77 229.64L302.61 229.64L302.61 212.12L304.77 212.12L304.77 218.96L304.79 218.96Q304.96 217.64 305.87 216.92Q306.78 216.20 308.30 216.20Q310.29 216.20 311.46 217.42Q312.64 218.65 312.64 220.76L312.64 229.64L310.48 229.64L310.48 221.12Q310.48 219.63 309.72 218.83Q308.97 218.02 307.67 218.02Q306.33 218.02 305.55 218.86Q304.77 219.70 304.77 221.24" fill="white" fill-opacity="0.7"/>
<path d="M327.16 229.64L323.32 229.64Q321.69 229.64 320.70 228.69Q319.72 227.74 319.72 226.16L319.72 218.41L315.93 218.41L315.93 216.44L319.72 216.44L319.72 212.72L321.88 212.72L321.88 216.44L327.28 216.44L327.28 218.41L321.88 218.41L321.88 226.16Q321.88 226.83 322.28 227.25Q322.67 227.67 323.32 227.67L327.16 227.67" fill="white" fill-opacity="0.7"/>
<path d="M355.96 229.64L352.12 229.64Q350.49 229.64 349.50 228.69Q348.52 227.74 348.52 226.16L348.52 218.41L344.73 218.41L344.73 216.44L348.52 216.44L348.52 212.72L350.68 212.72L350.68 216.44L356.08 216.44L356.08 218.41L350.68 218.41L350.68 226.16Q350.68 226.83 351.08 227.25Q351.47 227.67 352.12 227.67L355.96 227.67" fill="white" fill-opacity="0.7"/>
<path d="M362.37 229.64L360.21 229.64L360.21 212.12L362.37 212.12L362.37 218.96L362.39 218.96Q362.56 217.64 363.47 216.92Q364.38 216.20 365.90 216.20Q367.89 216.20 369.06 217.42Q370.24 218.65 370.24 220.76L370.24 229.64L368.08 229.64L368.08 221.12Q368.08 219.63 367.32 218.83Q366.57 218.02 365.27 218.02Q363.93 218.02 363.15 218.86Q362.37 219.70 362.37 221.24" fill="white" fill-opacity="0.7"/>
<path d="M379.60 229.88Q377.27 229.88 375.84 228.48Q374.42 227.07 374.42 224.60L374.42 221.48Q374.42 219.01 375.84 217.60Q377.27 216.20 379.60 216.20Q381.16 216.20 382.32 216.82Q383.49 217.45 384.14 218.58Q384.78 219.70 384.78 221.24L384.78 223.59L376.53 223.59L376.53 224.84Q376.53 226.30 377.37 227.16Q378.21 228.01 379.60 228.01Q380.80 228.01 381.58 227.54Q382.36 227.07 382.53 226.28L384.69 226.28Q384.47 227.94 383.08 228.91Q381.69 229.88 379.60 229.88M376.53 221.24L376.53 221.91L382.67 221.91L382.67 221.24Q382.67 219.68 381.87 218.83Q381.06 217.98 379.60 217.98Q378.14 217.98 377.33 218.83Q376.53 219.68 376.53 221.24" fill="white" fill-opacity="0.7"/>
<path d="M405.57 229.64L403.41 229.64L403.41 212.12L409.05 212.12Q411.50 212.12 412.95 213.52Q414.40 214.93 414.40 217.28Q414.40 219.63 412.95 221.04Q411.50 222.44 409.05 222.44L405.57 222.44L405.57 229.64M405.57 214.06L405.57 220.50L409.05 220.50Q410.46 220.50 411.32 219.62Q412.17 218.74 412.17 217.28Q412.17 215.79 411.32 214.93Q410.46 214.06 409.05 214.06" fill="white" fill-opacity="0.7"/>
<path d="M420.45 229.64L418.29 229.64L418.29 216.44L420.45 216.44L420.45 218.96L420.50 218.96Q420.66 217.69 421.58 216.94Q422.49 216.20 424.02 216.20Q426.09 216.20 427.20 217.44Q428.32 218.67 428.32 220.95L428.32 222.08L426.16 222.08L426.16 220.95Q426.16 218.07 423.35 218.07Q421.94 218.07 421.19 218.89Q420.45 219.70 420.45 221.24" fill="white" fill-opacity="0.7"/>
<path d="M437.20 229.88Q434.87 229.88 433.44 228.48Q432.02 227.07 432.02 224.60L432.02 221.48Q432.02 219.01 433.44 217.60Q434.87 216.20 437.20 216.20Q438.76 216.20 439.92 216.82Q441.09 217.45 441.74 218.58Q442.38 219.70 442.38 221.24L442.38 223.59L434.13 223.59L434.13 224.84Q434.13 226.30 434.97 227.16Q435.81 228.01 437.20 228.01Q438.40 228.01 439.18 227.54Q439.96 227.07 440.13 226.28L442.29 226.28Q442.07 227.94 440.68 228.91Q439.29 229.88 437.20 229.88M434.13 221.24L434.13 221.91L440.27 221.91L440.27 221.24Q440.27 219.68 439.47 218.83Q438.66 217.98 437.20 217.98Q435.74 217.98 434.93 218.83Q434.13 219.68 434.13 221.24" fill="white" fill-opacity="0.7"/>
<path d="M452.13 229.83L451.07 229.83Q448.86 229.83 447.65 228.84Q446.44 227.84 446.44 226.02L448.60 226.02Q448.60 226.93 449.25 227.44Q449.90 227.96 451.07 227.96L452.13 227.96Q453.33 227.96 453.99 227.43Q454.65 226.90 454.65 225.94Q454.65 224.24 453.09 224.02L449.44 223.50Q448.10 223.30 447.35 222.38Q446.61 221.46 446.61 219.94Q446.61 218.22 447.80 217.23Q448.98 216.25 451.07 216.25L452.13 216.25Q454.05 216.25 455.26 217.20Q456.47 218.14 456.57 219.68L454.38 219.68Q454.34 218.98 453.72 218.53Q453.11 218.07 452.13 218.07L451.07 218.07Q449.97 218.07 449.34 218.58Q448.72 219.08 448.72 219.94Q448.72 221.34 449.99 221.53L453.40 222.01Q456.76 222.49 456.76 225.94Q456.76 227.79 455.55 228.81Q454.34 229.83 452.13 229.83" fill="white" fill-opacity="0.7"/>
<path d="M464.85 229.88Q462.81 229.88 461.61 228.74Q460.41 227.60 460.41 225.75Q460.41 224.53 460.96 223.62Q461.51 222.70 462.50 222.19Q463.48 221.67 464.75 221.67L468.83 221.67L468.83 220.64Q468.83 218.07 466.02 218.07Q464.78 218.07 464.01 218.53Q463.24 218.98 463.19 219.80L461.03 219.80Q461.15 218.24 462.48 217.22Q463.82 216.20 466.02 216.20Q468.42 216.20 469.71 217.35Q470.99 218.50 470.99 220.57L470.99 229.64L468.86 229.64L468.86 227.24L468.81 227.24Q468.62 228.46 467.58 229.17Q466.55 229.88 464.85 229.88M465.38 228.06Q466.96 228.06 467.90 227.29Q468.83 226.52 468.83 225.20L468.83 223.35L464.99 223.35Q463.94 223.35 463.28 223.99Q462.62 224.62 462.62 225.68Q462.62 226.78 463.35 227.42Q464.08 228.06 465.38 228.06" fill="white" fill-opacity="0.7"/>
<path d="M486.40 229.64L482.32 229.64Q480.57 229.64 479.52 228.62Q478.48 227.60 478.48 225.92L478.48 214.09L473.92 214.09L473.92 212.12L480.64 212.12L480.64 225.92Q480.64 226.74 481.10 227.20Q481.55 227.67 482.32 227.67L486.40 227.67" fill="white" fill-opacity="0.7"/>
<path d="M494.13 233.96L491.87 233.96L493.82 228.82L488.90 216.44L491.22 216.44L494.34 224.60Q494.54 225.08 494.70 225.61Q494.87 226.14 494.94 226.52Q495.02 226.14 495.18 225.61Q495.35 225.08 495.52 224.60L498.42 216.44L500.70 216.44" fill="white" fill-opacity="0.7"/>
<path d="M514.36 229.64L510.52 229.64Q508.89 229.64 507.90 228.69Q506.92 227.74 506.92 226.16L506.92 218.41L503.13 218.41L503.13 216.44L506.92 216.44L506.92 212.72L509.08 212.72L509.08 216.44L514.48 216.44L514.48 218.41L509.08 218.41L509.08 226.16Q509.08 226.83 509.48 227.25Q509.87 227.67 510.52 227.67L514.36 227.67" fill="white" fill-opacity="0.7"/>
<path d="M529.72 229.64L518.44 229.64L518.44 227.67L523.12 227.67L523.12 218.41L518.92 218.41L518.92 216.44L525.28 216.44L525.28 227.67L529.72 227.67L529.72 229.64M523.96 214.06Q523.17 214.06 522.71 213.66Q522.26 213.25 522.26 212.55Q522.26 211.83 522.71 211.41Q523.17 210.99 523.96 210.99Q524.75 210.99 525.21 211.41Q525.66 211.83 525.66 212.55Q525.66 213.25 525.21 213.66Q524.75 214.06 523.96 214.06" fill="white" fill-opacity="0.7"/>
<path d="M538.19 229.88Q535.79 229.88 534.35 228.54Q532.91 227.19 532.91 224.84L532.91 221.24Q532.91 218.89 534.35 217.54Q535.79 216.20 538.19 216.20Q540.47 216.20 541.88 217.42Q543.28 218.65 543.35 220.76L541.19 220.76Q541.12 219.49 540.33 218.80Q539.54 218.12 538.19 218.12Q536.78 218.12 535.92 218.92Q535.07 219.73 535.07 221.22L535.07 224.84Q535.07 226.33 535.92 227.14Q536.78 227.96 538.19 227.96Q539.54 227.96 540.33 227.26Q541.12 226.57 541.19 225.32L543.35 225.32Q543.28 227.43 541.88 228.66Q540.47 229.88 538.19 229.88" fill="white" fill-opacity="0.7"/>
<path d="M552.93 229.83L551.87 229.83Q549.66 229.83 548.45 228.84Q547.24 227.84 547.24 226.02L549.40 226.02Q549.40 226.93 550.05 227.44Q550.70 227.96 551.87 227.96L552.93 227.96Q554.13 227.96 554.79 227.43Q555.45 226.90 555.45 225.94Q555.45 224.24 553.89 224.02L550.24 223.50Q548.90 223.30 548.15 222.38Q547.41 221.46 547.41 219.94Q547.41 218.22 548.60 217.23Q549.78 216.25 551.87 216.25L552.93 216.25Q554.85 216.25 556.06 217.20Q557.27 218.14 557.37 219.68L555.18 219.68Q555.14 218.98 554.52 218.53Q553.91 218.07 552.93 218.07L551.87 218.07Q550.77 218.07 550.14 218.58Q549.52 219.08 549.52 219.94Q549.52 221.34 550.79 221.53L554.20 222.01Q557.56 222.49 557.56 225.94Q557.56 227.79 556.35 228.81Q555.14 229.83 552.93 229.83" fill="white" fill-opacity="0.7"/>
<path d="M577.41 229.64L575.20 229.64L579.76 212.12L582.66 212.12L587.20 229.64L585.02 229.64L583.86 224.98L578.56 224.98L577.41 229.64M580.34 217.74L578.99 223.16L583.41 223.16L582.06 217.76Q581.68 216.22 581.46 215.19Q581.25 214.16 581.20 213.85Q581.15 214.16 580.94 215.19Q580.72 216.22 580.34 217.74" fill="white" fill-opacity="0.7"/>
<path d="M592.77 229.64L590.61 229.64L590.61 212.12L596.25 212.12Q598.70 212.12 600.15 213.52Q601.60 214.93 601.60 217.28Q601.60 219.63 600.15 221.04Q598.70 222.44 596.25 222.44L592.77 222.44L592.77 229.64M592.77 214.06L592.77 220.50L596.25 220.50Q597.66 220.50 598.52 219.62Q599.37 218.74 599.37 217.28Q599.37 215.79 598.52 214.93Q597.66 214.06 596.25 214.06" fill="white" fill-opacity="0.7"/>
<path d="M614.68 229.64L605.32 229.64L605.32 227.67L608.90 227.67L608.90 214.09L605.32 214.09L605.32 212.12L614.68 212.12L614.68 214.09L611.10 214.09L611.10 227.67L614.68 227.67" fill="white" fill-opacity="0.7"/>
<path d="M79.95 136.06L70.45 136.06L70.45 65.98L93.20 65.98Q99.92 65.98 104.82 68.57Q109.71 71.16 112.40 75.82Q115.09 80.48 115.09 86.91Q115.09 93.24 112.40 97.90Q109.71 102.56 104.77 105.15Q99.82 107.74 93.20 107.74L79.95 107.74L79.95 136.06M79.95 74.43L79.95 99.29L93.20 99.29Q98.77 99.29 102.03 95.88Q105.30 92.48 105.30 86.91Q105.30 81.24 102.03 77.84Q98.77 74.43 93.20 74.43L79.95 74.43M137.55 136.06L128.14 136.06L128.14 65.98L149.84 65.98Q156.27 65.98 161.07 68.52Q165.87 71.07 168.56 75.63Q171.25 80.19 171.25 86.33Q171.25 93.44 167.65 98.52Q164.05 103.61 158.10 105.72L172.21 136.06L161.74 136.06L148.40 106.78L137.55 106.78L137.55 136.06M137.55 74.43L137.55 98.33L149.84 98.33Q155.22 98.33 158.34 95.07Q161.46 91.80 161.46 86.43Q161.46 80.96 158.29 77.69Q155.12 74.43 149.84 74.43L137.55 74.43M227.31 136.06L186.51 136.06L186.51 65.98L227.31 65.98L227.31 74.52L195.92 74.52L195.92 95.36L223.95 95.36L223.95 103.61L195.92 103.61L195.92 127.52L227.31 127.52L227.31 136.06M263.98 137.02Q253.62 137.02 247.47 131.60Q241.33 126.17 241.33 116.67L250.83 116.67Q250.83 122.24 254.38 125.40Q257.94 128.57 263.98 128.57Q269.74 128.57 273.15 125.36Q276.56 122.14 276.56 116.76Q276.56 112.73 274.35 109.71Q272.14 106.68 268.11 105.63L257.74 102.84Q250.93 100.92 246.94 95.88Q242.96 90.84 242.96 83.93Q242.96 78.27 245.50 74Q248.05 69.72 252.66 67.37Q257.26 65.02 263.31 65.02Q269.46 65.02 274.11 67.37Q278.77 69.72 281.36 73.95Q283.95 78.17 283.95 83.74L274.54 83.74Q274.54 79.13 271.42 76.25Q268.30 73.37 263.31 73.37Q258.32 73.37 255.30 76.25Q252.27 79.13 252.27 83.74Q252.27 87.48 254.29 90.03Q256.30 92.57 259.95 93.63L270.61 96.51Q277.81 98.43 281.84 103.85Q285.87 109.28 285.87 116.76Q285.87 122.91 283.18 127.47Q280.50 132.03 275.55 134.52Q270.61 137.02 263.98 137.02M306.51 136.06L296.82 136.06L314.96 65.98L327.54 65.98L345.58 136.06L335.89 136.06L331.47 117.82L310.93 117.82L306.51 136.06M317.94 88.92L312.85 109.95L329.55 109.95L324.56 89.02Q323.12 83.26 322.26 79.23Q321.39 75.20 321.20 73.76Q321.01 75.20 320.14 79.23Q319.28 83.26 317.94 88.92M402.99 136.06L362.29 136.06L362.29 65.98L371.79 65.98L371.79 127.42L402.99 127.42L402.99 136.06M441.20 136.06L431.70 136.06L431.70 110.04L410.67 65.98L420.75 65.98L433.71 93.63Q434.86 96.12 435.58 98.14Q436.30 100.16 436.50 101.02Q436.78 100.16 437.50 98.14Q438.22 96.12 439.47 93.63L452.34 65.98L462.13 65.98L441.20 110.04L441.20 136.06M498.80 136.06L489.30 136.06L489.30 74.62L470.29 74.62L470.29 65.98L517.71 65.98L517.71 74.62L498.80 74.62L498.80 136.06M570.70 136.06L532.50 136.06L532.50 127.42L546.80 127.42L546.80 74.62L532.50 74.62L532.50 65.98L570.70 65.98L570.70 74.62L556.40 74.62L556.40 127.42L570.70 127.42L570.70 136.06M609.97 137.02Q600.27 137.02 594.56 131.60Q588.85 126.17 588.85 116.67L588.85 85.28Q588.85 75.87 594.56 70.44Q600.27 65.02 609.97 65.02Q619.57 65.02 625.28 70.49Q630.99 75.96 630.99 85.28L621.49 85.28Q621.49 79.61 618.42 76.54Q615.34 73.47 609.97 73.47Q604.50 73.47 601.42 76.54Q598.35 79.61 598.35 85.28L598.35 116.67Q598.35 122.43 601.42 125.50Q604.50 128.57 609.97 128.57Q615.34 128.57 618.42 125.50Q621.49 122.43 621.49 116.67L630.99 116.67Q630.99 126.08 625.28 131.55Q619.57 137.02 609.97 137.02M667.18 137.02Q656.82 137.02 650.67 131.60Q644.53 126.17 644.53 116.67L654.03 116.67Q654.03 122.24 657.58 125.40Q661.14 128.57 667.18 128.57Q672.94 128.57 676.35 125.36Q679.76 122.14 679.76 116.76Q679.76 112.73 677.55 109.71Q675.34 106.68 671.31 105.63L660.94 102.84Q654.13 100.92 650.14 95.88Q646.16 90.84 646.16 83.93Q646.16 78.27 648.70 74Q651.25 69.72 655.86 67.37Q660.46 65.02 666.51 65.02Q672.66 65.02 677.31 67.37Q681.97 69.72 684.56 73.95Q687.15 78.17 687.15 83.74L677.74 83.74Q677.74 79.13 674.62 76.25Q671.50 73.37 666.51 73.37Q661.52 73.37 658.50 76.25Q655.47 79.13 655.47 83.74Q655.47 87.48 657.49 90.03Q659.50 92.57 663.15 93.63L673.81 96.51Q681.01 98.43 685.04 103.85Q689.07 109.28 689.07 116.76Q689.07 122.91 686.38 127.47Q683.70 132.03 678.75 134.52Q673.81 137.02 667.18 137.02M782.38 137.02Q772.02 137.02 765.87 131.60Q759.73 126.17 759.73 116.67L769.23 116.67Q769.23 122.24 772.78 125.40Q776.34 128.57 782.38 128.57Q788.14 128.57 791.55 125.36Q794.96 122.14 794.96 116.76Q794.96 112.73 792.75 109.71Q790.54 106.68 786.51 105.63L776.14 102.84Q769.33 100.92 765.34 95.88Q761.36 90.84 761.36 83.93Q761.36 78.27 763.90 74Q766.45 69.72 771.06 67.37Q775.66 65.02 781.71 65.02Q787.86 65.02 792.51 67.37Q797.17 69.72 799.76 73.95Q802.35 78.17 802.35 83.74L792.94 83.74Q792.94 79.13 789.82 76.25Q786.70 73.37 781.71 73.37Q776.72 73.37 773.70 76.25Q770.67 79.13 770.67 83.74Q770.67 87.48 772.69 90.03Q774.70 92.57 778.35 93.63L789.01 96.51Q796.21 98.43 800.24 103.85Q804.27 109.28 804.27 116.76Q804.27 122.91 801.58 127.47Q798.90 132.03 793.95 134.52Q789.01 137.02 782.38 137.02M844.40 136.06L834.90 136.06L834.90 74.62L815.89 74.62L815.89 65.98L863.31 65.98L863.31 74.62L844.40 74.62L844.40 136.06M897.20 137.02Q887.60 137.02 882.03 131.45Q876.46 125.88 876.46 115.71L876.46 86.24Q876.46 76.16 882.03 70.59Q887.60 65.02 897.20 65.02Q906.80 65.02 912.37 70.54Q917.94 76.06 917.94 86.24L917.94 115.71Q917.94 125.88 912.37 131.45Q906.80 137.02 897.20 137.02M897.20 128.57Q902.58 128.57 905.50 125.50Q908.43 122.43 908.43 116.67L908.43 85.28Q908.43 79.61 905.55 76.54Q902.67 73.47 897.20 73.47Q891.73 73.47 888.85 76.54Q885.97 79.61 885.97 85.28L885.97 116.67Q885.97 122.43 888.90 125.50Q891.82 128.57 897.20 128.57M943.95 136.06L934.54 136.06L934.54 65.98L956.24 65.98Q962.67 65.98 967.47 68.52Q972.27 71.07 974.96 75.63Q977.65 80.19 977.65 86.33Q977.65 93.44 974.05 98.52Q970.45 103.61 964.50 105.72L978.61 136.06L968.14 136.06L954.80 106.78L943.95 106.78L943.95 136.06M943.95 74.43L943.95 98.33L956.24 98.33Q961.62 98.33 964.74 95.07Q967.86 91.80 967.86 86.43Q967.86 80.96 964.69 77.69Q961.52 74.43 956.24 74.43L943.95 74.43M1017.20 136.06L1007.70 136.06L1007.70 110.04L986.67 65.98L996.75 65.98L1009.71 93.63Q1010.86 96.12 1011.58 98.14Q1012.30 100.16 1012.50 101.02Q1012.78 100.16 1013.50 98.14Q1014.22 96.12 1015.47 93.63L1028.34 65.98L1038.13 65.98L1017.20 110.04" fill="url(#paint2_linear_0_1)"/>
<g id="Group 1">
<rect id="Rectangle 1" x="26" y="168" width="12" height="184" rx="5" fill="url(#paint3_linear_0_1)" fill-opacity="0.9"/>
</g>
<g id="Group 1_2">
<rect id="Rectangle 2" x="26" y="38" width="12" height="119" rx="5" fill="url(#paint4_linear_0_1)" fill-opacity="0.9"/>
</g>
<ellipse id="Ellipse 1" cx="148.5" cy="573" rx="215.5" ry="214" fill="url(#paint5_linear_0_1)" fill-opacity="0.4"/>
<rect id="Rectangle 3" x="1229" y="48" width="300" height="300" rx="25" fill="#FFFBFB" fill-opacity="0.9"/>
<g id="placeholder-logo"><g transform="translate(1229,48) translate(0.0,60.0) scale(1.2000)"><g fill="#666666">
  <path d="m88.05,27.65c-3.15,4 -3.2,51.2 -0.05,54.35c2.75,2.75 71.7,3.15 74.45,0.45c2.85,-2.9 2.3,-53.85 -0.65,-55.9c-1.95,-1.35 -7.15,-1.55 -36.95,-1.55l-34.7,0l-2.1,2.65zm69.45,3.35c0.65,0 1,8.6 1,23.75l0,23.75l-33,0l-33,0l-0.25,-23c-0.15,-12.6 -0.1,-23.45 0.15,-24.1c0.35,-0.85 8.9,-1.05 32.25,-0.75c17.55,0.2 32.3,0.35 32.85,0.35z"/>
  <path d="m99.15,37.3c-6.85,7.35 4.25,17.35 11.4,10.25c1.35,-1.35 2.45,-3.65 2.45,-5.05c0,-6.45 -9.35,-9.95 -13.85,-5.2z"/>
  <path d="m135,42.5c-0.7,0.85 -5.25,5.15 -10.1,9.6l-8.85,8.1l-3.2,-3.2l-3.15,-3.15l-6.35,6.3c-5.55,5.5 -6.35,6.75 -6.35,10.05l0,3.8l28.5,0l28.5,0l0,-8.6l0,-8.55l-8.15,-7.7c-9.35,-8.85 -9.15,-8.7 -10.85,-6.65zm7.25,15.2c0.95,0.9 1.75,2.9 1.75,4.45c6.35,-5.05 4.75,-7.15 4.9,-11.55c0.95,0 0,0 0,0l-6.65,7.1z"/>
  <path d="m53.65,110.75c0.1,4.8 0.45,8.65 0.75,8.5c0.35,-0.15 1.3,-0.25 2.1,-0.25c1.1,0 1.5,-1.2 1.5,-4.75l0,-4.75l3.25,5c4.9,7.5 6.2,6.75 6.55,-3.75c0.25,-8.15 0.15,-8.75 -1.7,-8.75c-1.65,0 -2.05,0.8 -2.3,4.75l-0.3,4.75l-2.8,-4.75c-4.85,-8.25 -7.25,-6.9 -7.05,4z"/>
  <path d="m91,108.9c0,9.65 0.3,10.1 6.1,10.1c5.8,0 7.15,-2.65 1.65,-3.2l-3.25,-0.3l-0.3,-6.75c-0.25,-5.95 -0.55,-6.75 -2.25,-6.75c-1.75,0 -1.95,0.7 -1.95,6.9z"/>
  <path d="m151,102.45c0,0.25 1,2.15 2.25,4.2c1.2,2.1 2.45,5.8 2.75,8.25c0.65,5.9 4,6.95 4,1.25c0.05,-2.1 1.25,-5.85 2.95,-8.9l2.9,-5.25l-2.5,0c-1.8,0 -2.8,0.85 -3.75,3.1l-1.3,3.05l-1.25,-3.05c-1.1,-2.6 -6.05,-4.8 -6.05,-2.65z"/>
  <path d="m191,107.45c0,9.05 3.4,8.85 4.25,-0.2c0.45,-5 0.35,-5.25 -1.9,-5.25c-2.2,0 -2.35,0.4 -2.35,5.45z"/>
  <path d="m180.8,104.75c-1.3,5.35 0.65,13.6 3.45,14.35c2.3,0.6 2.75,0.4 2.75,-1.2c0,-1.05 -0.45,-1.9 -1,-1.9c-0.55,0 -1,-1.6 -1,-3.5c0,-1.95 0.45,-3.5 1,-3.5c0.55,0 1,-0.7 1,-1.5c0,-0.85 -0.45,-1.5 -1,-1.5c-0.55,0 -1,-0.7 -1,-1.5c0,-2.1 -3.65,-1.9 -4.2,0.25z"/>
  <path d="m71.55,106.55c-2.2,2.25 -2.05,9.7 0.3,11.8c4.5,4.1 10.15,0.75 10.15,-6.1c0,-4.85 -2,-7.25 -6,-7.25c-1.55,0 -3.55,0.7 -4.45,1.55zm6.25,5.8c0.25,3.05 0,3.65 -1.6,3.65c-2.3,0 -3.25,-2.65 -2.05,-5.85c1.25,-3.35 3.3,-2.1 3.65,2.2z"/>
  <path d="m105.75,106.1c-2.5,1.45 -2.45,9.95 0.1,12.25c4.3,3.9 10.15,0.35 10.15,-6.2c0,-6 -5.15,-9.05 -10.25,-6.05zm6.05,6.25c0.25,3.05 0,3.65 -1.6,3.65c-2.3,0 -3.25,-2.65 -2.05,-5.85c1.25,-3.35 3.3,-2.1 3.65,2.2z"/>
  <path d="m119.2,106.2c-3.8,3.8 -0.4,12.55 4.4,11.35c1.9,-0.45 2.45,-0.3 2.15,0.65c-0.25,0.7 -1.55,1.2 -2.85,1.1c-4.05,-0.3 -5.35,0.45 -3.85,2.25c0.85,1.05 2.6,1.45 5.35,1.25l4.1,-0.3l0.3,-8.75l0.3,-8.75l-4.35,0c-2.4,0 -4.9,0.55 -5.55,1.2zm6.6,4.45c0.4,2.85 -2.15,4.85 -3.75,2.95c-0.9,-1.1 -0.9,-2 -0.05,-3.6c1.35,-2.5 3.4,-2.15 3.8,0.65z"/>
  <path d="m133.55,106.55c-2.2,2.25 -2.05,9.7 0.3,11.8c4.5,4.1 10.15,0.75 10.15,-6.1c0,-4.85 -2,-7.25 -6,-7.25c-1.55,0 -3.55,0.7 -4.45,1.55zm6.25,5.8c0.25,3.05 0,3.65 -1.6,3.65c-2.3,0 -3.25,-2.65 -2.05,-5.85c1.25,-3.35 3.3,-2.1 3.65,2.2z"/>
  <path d="m167.65,106.85c-3.9,4.3 -0.75,13.15 4.7,13.15c2.4,0 5.65,-2.75 5.65,-4.85c0,-1.4 -2.65,-1.55 -3.5,-0.15c-0.95,1.55 -4.5,1.15 -4.5,-0.5c0,-1.1 1.1,-1.5 4,-1.5c3.15,0 4,-0.35 4,-1.8c0,-5.3 -6.85,-8.25 -10.35,-4.35z"/>
  <path d="m191,117.5c0,2.15 0.4,2.6 2.25,2.3c1.5,-0.2 2.25,-1 2.25,-2.3c0,-1.3 -0.75,-2.1 -2.25,-2.3c-1.85,-0.3 -2.25,0.15 -2.25,2.3z"/>
 </g></g></g>
</g>
<defs>
<linearGradient id="paint0_linear_0_1" x1="0" y1="198" x2="1584" y2="198" gradientUnits="userSpaceOnUse">
<stop stop-color="#3D052C"/>
<stop offset="1"/>
</linearGradient>
<linearGradient id="paint1_linear_0_1" x1="323" y1="-224" x2="323" y2="352" gradientUnits="userSpaceOnUse">
<stop stop-color="#28F6F2" stop-opacity="0.4"/>
<stop offset="1" stop-color="#17908E" stop-opacity="0.7"/>
</linearGradient>
<linearGradient id="paint2_linear_0_1" x1="148.5" y1="38" x2="148.5" y2="140" gradientUnits="userSpaceOnUse">
<stop stop-color="white"/>
<stop offset="1" stop-color="#999999"/>
</linearGradient>
<linearGradient id="paint3_linear_0_1" x1="38" y1="260" x2="26" y2="260" gradientUnits="userSpaceOnUse">
<stop stop-color="#D9D9D9"/>
<stop offset="1" stop-color="#737373"/>
</linearGradient>
<linearGradient id="paint4_linear_0_1" x1="38" y1="97.5" x2="26" y2="97.5" gradientUnits="userSpaceOnUse">
<stop stop-color="#D9D9D9"/>
<stop offset="1" stop-color="#737373"/>
</linearGradient>
<linearGradient id="paint5_linear_0_1" x1="27.5" y1="434.5" x2="148.5" y2="787" gradientUnits="userSpaceOnUse">
<stop stop-color="#2E21BC"/>
<stop offset="1" stop-color="#150F56"/>
</linearGradient>
<clipPath id="clip0_0_1">
<rect width="1584" height="396" fill="white"/>
</clipPath>
</defs>
</svg>
